<?xml version="1.0" encoding="utf-8"?>
<!-- Generator: Adobe Illustrator 25.4.1, SVG Export Plug-In . SVG Version: 6.00 Build 0)  -->
<svg version="1.1" id="Rocket" xmlns="http://www.w3.org/2000/svg" xmlns:xlink="http://www.w3.org/1999/xlink" x="0px" y="0px"
	 viewBox="0 0 840.14 838.15" style="enable-background:new 0 0 840.14 838.15;" xml:space="preserve">
<style type="text/css">
	.st0{fill:#E52525;}
</style>
<g>
	<path class="st0" d="M187.6,519.92c19.06-31.21,46.3-50.54,78.89-64.5c2.37-1.01,4.89,1.04,4.4,3.56
		c-0.03,0.13-0.05,0.26-0.08,0.39c-5.26,22.6-9.91,45.36-16.05,67.72c-6.77,24.64,2.01,43.15,23.59,57.08
		c25.51,16.46,52.3,30.99,78.89,45.71c17.86,9.89,33.97,7.57,49.35-6.38c18.56-16.84,36.75-34.09,55.1-51.16
		c0.62-0.58,1.25-1.16,1.91-1.77c1.88-1.75,4.97-0.66,5.33,1.89c2.52,17.84,2.41,34.84-0.05,51.85c-2.41,16.65-7.3,32.5-16.41,48.47
		c-1.34,2.34,0.6,5.19,3.27,4.76c4.86-0.78,9.05-1.44,13.17-2.4c71.86-16.77,130.62-54.57,176.24-112.18
		c13.89-17.54,26.23-36.71,36.6-56.54c17.63-33.74,16.03-68.83-0.42-102.6c-7.59-15.58-18.08-29.74-28.07-45.59
		c-0.62-0.98-0.66-2.22-0.11-3.23c37.18-68.99,60.78-143.78,61.1-226.63c0.01-2.85,3.48-4.24,5.47-2.2
		c44.08,44.97,75.97,95.76,95.98,153.83c35.6,103.34,32.79,205.99-11.43,306.05c-93.8,212.25-315.77,285.24-488.16,238.6
		c-2.24-0.61-3.08-3.35-1.6-5.13c2.54-3.04,4.99-5.99,7.37-9c27.81-35.3,33.53-74.48,20.02-116.8c-1-3.14-3.95-6.35-6.86-8.07
		c-33.01-19.43-66.12-38.69-99.42-57.61c-3.4-1.93-8.51-2.64-12.35-1.77c-47.44,10.69-78.9,39.11-93.67,85.65
		c-0.2,0.64-0.41,1.27-0.63,1.91c-0.74,2.19-3.51,2.89-5.19,1.3C5.94,603.67-49,395.01,55.12,212.6
		C165.58,19.11,380.22-28.69,528.21,14.96c2.68,0.79,3.09,4.42,0.66,5.81v0c-49.76,28.2-91.52,65.68-126.55,110.6
		c-13.67,17.52-26.05,36.07-38.48,54.52c-2.92,4.34-5.38,4.91-10.07,3.96c-32.78-6.67-64.79-4.72-94.97,10.76
		c-20.97,10.75-36.43,27.23-48.37,47.66c-33.21,56.81-49.28,117.81-46.34,183.61c1.31,29.39,6.8,58.03,17.04,85.69
		c0.25,0.67,0.52,1.32,0.83,2.02C183,521.94,186.25,522.12,187.6,519.92z"/>
	<path class="st0" d="M214.59,702.43c21.99,12.69,43.91,25.33,65.89,38.01c14.66,8.46,15.92,29.28,2.24,39.25
		c-0.09,0.07-0.18,0.13-0.28,0.2c-20.17,14.62-43.04,24.16-65.43,34.55c-7.72,3.58-16.07,5.82-24.12,8.7
		c-3.33,1.19-5.42,0.33-6.1-3.35c-1.51-8.22-3.78-16.37-4.51-24.66c-2.15-24.4-5.38-48.8-2.96-73.39c0.05-0.5,0.1-0.99,0.15-1.49
		C181.29,703.38,199.88,693.94,214.59,702.43z"/>
	<path class="st0" d="M530.53,51.07c-1.47-0.85-1.4-3,0.13-3.74c24.02-11.57,47.67-19.98,72.53-24.44
		c15.07-2.7,30.42-3.85,45.69-5.29c2.06-0.2,5.42,1.35,6.38,3.09c20.31,36.81,31.11,76.4,34.01,118.24c0,0.01,0,0.02,0,0.02
		c0.1,1.65-1.74,2.71-3.17,1.88C634.29,110.94,582.99,81.34,530.53,51.07z"/>
</g>
</svg>
