<?xml version="1.0" encoding="utf-8"?>
<!-- Generator: Adobe Illustrator 25.4.1, SVG Export Plug-In . SVG Version: 6.00 Build 0)  -->
<svg version="1.1" id="Layer_1" xmlns="http://www.w3.org/2000/svg" xmlns:xlink="http://www.w3.org/1999/xlink" x="0px" y="0px"
	 viewBox="0 0 459.78 396.56" style="enable-background:new 0 0 459.78 396.56;" xml:space="preserve">
<style type="text/css">
	.st0{fill:#FFFFFF;}
	.st1{fill:#E52525;}
	.st2{clip-path:url(#SVGID_00000182505283336269018610000003668659939797505725_);}
	.st3{clip-path:url(#SVGID_00000010293099773737107100000012551889874474297233_);fill:#E52525;}
</style>
<path class="st0" d="M0,396.53v-9.44l8.36-1.62v-56.36L0,327.49V318h8.36H34.9c9.24,0,16.45,1.8,21.63,5.39
	c5.18,3.6,7.77,8.97,7.77,16.13c0,3.63-0.96,6.88-2.89,9.74c-1.92,2.86-4.72,5.01-8.39,6.45c3.13,0.68,5.74,1.89,7.85,3.61
	c2.1,1.73,3.68,3.82,4.72,6.28c1.04,2.46,1.56,5.15,1.56,8.06c0,7.52-2.48,13.21-7.44,17.07c-4.96,3.87-11.99,5.8-21.09,5.8H0z
	 M24.11,350.9h11.33c4.21,0,7.44-0.86,9.71-2.59c2.27-1.73,3.4-4.24,3.4-7.55c0-3.63-1.14-6.31-3.42-8.04
	c-2.28-1.73-5.69-2.59-10.22-2.59H24.11V350.9z M24.11,384.45h14.51c4.17,0,7.35-0.91,9.55-2.72c2.19-1.82,3.29-4.5,3.29-8.06
	c0-2.59-0.41-4.76-1.24-6.53c-0.83-1.76-2.1-3.09-3.8-3.99c-1.71-0.9-3.91-1.35-6.61-1.35h-15.7V384.45z"/>
<path class="st0" d="M72.01,396.53v-9.44l7.61-1.62V323.5l-8.41-1.62v-9.49h24.16v73.08l7.61,1.62v9.44H72.01z"/>
<path class="st0" d="M126.51,396.52c-5.79,0-10.39-1.56-13.81-4.67c-3.42-3.11-5.12-7.34-5.12-12.7c0-3.67,1-6.89,2.99-9.65
	c2-2.77,4.94-4.94,8.85-6.53c3.9-1.58,8.71-2.37,14.43-2.37h7.71v-4.31c0-2.8-0.82-5.08-2.45-6.82c-1.64-1.74-4.09-2.62-7.36-2.62
	c-1.69,0-3.21,0.21-4.56,0.62c-1.35,0.41-2.56,1-3.64,1.75l-1.24,7.71h-11.33l-0.22-15.16c3.06-1.73,6.36-3.13,9.92-4.21
	c3.56-1.08,7.53-1.62,11.92-1.62c7.62,0,13.65,1.77,18.07,5.31c4.42,3.54,6.63,8.6,6.63,15.18v24.06c0,0.79,0.01,1.57,0.03,2.35
	c0.02,0.77,0.08,1.52,0.19,2.24l6.09,0.86v9.44h-19.52c-0.4-1.01-0.79-2.08-1.19-3.24c-0.4-1.15-0.68-2.3-0.86-3.45
	c-1.87,2.37-4.07,4.27-6.61,5.69C132.9,395.8,129.93,396.52,126.51,396.52z M130.72,384.86c2.19,0,4.28-0.49,6.26-1.48
	c1.98-0.99,3.51-2.29,4.58-3.91v-9.22h-7.77c-3.45,0-6.07,0.79-7.85,2.37c-1.78,1.58-2.67,3.49-2.67,5.72
	c0,2.09,0.66,3.69,1.97,4.83C126.56,384.3,128.38,384.86,130.72,384.86z"/>
<path class="st0" d="M192.42,396.56c-4.35,0-8.41-0.41-12.16-1.24c-3.76-0.83-7.36-2.01-10.81-3.56l-0.16-16.5h10.95l2.1,8.41
	c1.22,0.61,2.56,1.1,4.02,1.46c1.46,0.36,3.12,0.54,4.99,0.54c3.52,0,6-0.57,7.44-1.73c1.44-1.15,2.16-2.59,2.16-4.31
	c0-1.62-0.76-3.05-2.29-4.29c-1.53-1.24-4.58-2.33-9.14-3.26c-6.9-1.44-11.99-3.67-15.26-6.69c-3.27-3.02-4.91-6.89-4.91-11.6
	c0-3.24,0.82-6.18,2.45-8.85c1.64-2.66,4.13-4.8,7.5-6.42c3.36-1.62,7.67-2.43,12.92-2.43c4.39,0,8.4,0.42,12.05,1.27
	c3.65,0.85,6.72,1.95,9.2,3.32l0.16,15.97h-10.9l-1.67-7.66c-0.97-0.72-2.11-1.26-3.42-1.62c-1.31-0.36-2.8-0.54-4.45-0.54
	c-2.77,0-4.89,0.56-6.36,1.67c-1.47,1.12-2.21,2.55-2.21,4.32c0,1.01,0.26,1.94,0.78,2.8c0.52,0.86,1.55,1.67,3.1,2.43
	c1.55,0.76,3.79,1.47,6.74,2.16c7.23,1.65,12.49,3.86,15.8,6.61c3.31,2.75,4.96,6.61,4.96,11.57c0,5.43-1.97,9.82-5.91,13.16
	C206.14,394.89,200.25,396.56,192.42,396.56z"/>
<path class="st0" d="M246.82,396.56c-5.43,0-9.61-1.49-12.54-4.48c-2.93-2.98-4.4-7.71-4.4-14.19v-29.77h-8.04v-11.06h8.04v-14.29
	h15.7v14.29h10.73v11.06h-10.73v29.72c0,2.27,0.48,3.88,1.43,4.85c0.95,0.97,2.26,1.46,3.91,1.46c0.86,0,1.8-0.06,2.8-0.19
	c1.01-0.13,1.87-0.26,2.59-0.4l1.35,11.38c-1.62,0.47-3.37,0.85-5.26,1.16C250.51,396.4,248.65,396.56,246.82,396.56z"/>
<path class="st1" d="M314.74,396.56c-7.62,0-14.26-1.59-19.9-4.77c-5.65-3.18-10-7.69-13.08-13.54c-3.07-5.84-4.61-12.76-4.61-20.74
	v-2.64c0-7.62,1.48-14.37,4.45-20.25c2.97-5.88,7.2-10.49,12.7-13.83c5.5-3.34,12.05-5.02,19.63-5.02c5.32,0,10.31,0.76,14.97,2.27
	c4.66,1.51,8.82,3.81,12.49,6.9v18.99h-11.7L328.07,332c-1.19-0.86-2.48-1.6-3.88-2.21c-1.4-0.61-2.92-1.08-4.56-1.4
	c-1.64-0.32-3.41-0.49-5.31-0.49c-4.46,0-8.29,1.1-11.49,3.29c-3.2,2.19-5.65,5.3-7.36,9.3c-1.71,4.01-2.56,8.76-2.56,14.27v2.75
	c0,5.5,0.9,10.27,2.7,14.29c1.8,4.03,4.35,7.15,7.66,9.36c3.31,2.21,7.23,3.32,11.76,3.32c2.27,0,4.54-0.26,6.82-0.78
	c2.28-0.52,4.36-1.19,6.23-2.02l1.62-11.06h11.7v18.77c-3.06,2.01-6.87,3.71-11.43,5.1C325.39,395.86,320.32,396.56,314.74,396.56z"
	/>
<path class="st1" d="M371.92,396.56c-5.43,0-9.61-1.49-12.54-4.48c-2.93-2.98-4.4-7.71-4.4-14.19v-29.77h-8.04v-11.06h8.04v-14.29
	h15.7v14.29h10.73v11.06h-10.73v29.72c0,2.27,0.48,3.88,1.43,4.85c0.95,0.97,2.26,1.46,3.91,1.46c0.86,0,1.8-0.06,2.8-0.19
	c1.01-0.13,1.87-0.26,2.59-0.4l1.35,11.38c-1.62,0.47-3.37,0.85-5.26,1.16C375.61,396.4,373.75,396.56,371.92,396.56z"/>
<path class="st1" d="M388.35,396.53v-9.44l7.55-1.62v-36.19l-8.36-1.62v-9.49h23.03l0.59,7.23l0.11,1.29
	c1.44-3.16,3.22-5.56,5.34-7.17c2.12-1.62,4.66-2.43,7.61-2.43c0.93,0,1.96,0.08,3.07,0.24c1.11,0.16,2.1,0.37,2.97,0.62
	l-1.67,14.51l-7.82-0.43c-2.23-0.11-4.04,0.27-5.42,1.13c-1.38,0.86-2.62,2.1-3.69,3.72v28.59l7.55,1.62v9.44H388.35z"/>
<path class="st1" d="M428.82,396.53v-9.44l7.6-1.62V323.5l-8.41-1.62v-9.49h24.16v73.08l7.6,1.62v9.44H428.82z"/>
<g>
	<g>
		<defs>
			<rect id="SVGID_1_" x="94.93" y="0" width="269.92" height="269.28"/>
		</defs>
		<clipPath id="SVGID_00000029736972903475073160000000762799533008026769_">
			<use xlink:href="#SVGID_1_"  style="overflow:visible;"/>
		</clipPath>
		<g style="clip-path:url(#SVGID_00000029736972903475073160000000762799533008026769_);">
			<defs>
				<rect id="SVGID_00000011717657955745597170000000650565184169884814_" x="94.93" y="0" width="269.92" height="269.28"/>
			</defs>
			<clipPath id="SVGID_00000090974358560039249920000014411963324922667407_">
				<use xlink:href="#SVGID_00000011717657955745597170000000650565184169884814_"  style="overflow:visible;"/>
			</clipPath>
			<path style="clip-path:url(#SVGID_00000090974358560039249920000014411963324922667407_);fill:#E52525;" d="M155.2,167.04
				c6.12-10.03,14.88-16.24,25.35-20.72c0.76-0.33,1.57,0.33,1.41,1.14c-0.01,0.04-0.02,0.08-0.03,0.12
				c-1.69,7.26-3.18,14.57-5.16,21.76c-2.17,7.92,0.65,13.86,7.58,18.34c8.2,5.29,16.8,9.96,25.35,14.69
				c5.74,3.18,10.91,2.43,15.85-2.05c5.96-5.41,11.81-10.95,17.7-16.44c0.2-0.19,0.4-0.37,0.61-0.57c0.61-0.56,1.6-0.21,1.71,0.61
				c0.81,5.73,0.77,11.19-0.02,16.66c-0.77,5.35-2.34,10.44-5.27,15.57c-0.43,0.75,0.19,1.67,1.05,1.53
				c1.56-0.25,2.91-0.46,4.23-0.77c23.09-5.39,41.97-17.53,56.62-36.04c4.46-5.63,8.43-11.8,11.76-18.17
				c5.67-10.84,5.15-22.11-0.13-32.96c-2.44-5-5.81-9.56-9.02-14.65c-0.2-0.31-0.21-0.71-0.03-1.04
				c11.95-22.17,19.53-46.2,19.63-72.81c0-0.91,1.12-1.36,1.76-0.71c14.16,14.45,24.41,30.77,30.84,49.42
				c11.44,33.2,10.53,66.18-3.67,98.33c-30.13,68.19-101.45,91.64-156.84,76.66c-0.72-0.19-0.99-1.08-0.51-1.65
				c0.81-0.98,1.6-1.92,2.37-2.89c8.94-11.34,10.77-23.93,6.43-37.52c-0.32-1.01-1.27-2.04-2.2-2.59
				c-10.61-6.24-21.24-12.43-31.94-18.51c-1.09-0.62-2.74-0.85-3.97-0.57c-15.24,3.43-25.35,12.56-30.1,27.52
				c-0.06,0.2-0.13,0.41-0.2,0.61c-0.24,0.7-1.13,0.93-1.67,0.42C96.84,193.95,79.18,126.91,112.64,68.3
				c35.49-62.17,104.45-77.52,152-63.5c0.86,0.25,0.99,1.42,0.21,1.87c-15.99,9.06-29.4,21.1-40.66,35.54
				c-4.39,5.63-8.37,11.59-12.36,17.52c-0.94,1.39-1.73,1.58-3.23,1.27c-10.53-2.14-20.82-1.52-30.51,3.46
				c-6.74,3.45-11.7,8.75-15.54,15.31c-10.67,18.25-15.83,37.85-14.89,58.99c0.42,9.44,2.19,18.65,5.47,27.53
				c0.08,0.21,0.17,0.43,0.27,0.65C153.72,167.69,154.77,167.75,155.2,167.04"/>
			<path style="clip-path:url(#SVGID_00000090974358560039249920000014411963324922667407_);fill:#E52525;" d="M163.87,225.68
				c7.07,4.08,14.11,8.14,21.17,12.21c4.71,2.72,5.11,9.41,0.72,12.61c-0.03,0.02-0.06,0.04-0.09,0.06
				c-6.48,4.7-13.83,7.76-21.02,11.1c-2.48,1.15-5.16,1.87-7.75,2.8c-1.07,0.38-1.74,0.11-1.96-1.08c-0.49-2.64-1.21-5.26-1.45-7.92
				c-0.69-7.84-1.73-15.68-0.95-23.58c0.02-0.16,0.03-0.32,0.05-0.48C153.17,225.98,159.15,222.95,163.87,225.68"/>
			<path style="clip-path:url(#SVGID_00000090974358560039249920000014411963324922667407_);fill:#E52525;" d="M265.38,16.41
				c-0.47-0.27-0.45-0.97,0.04-1.2c7.72-3.72,15.31-6.42,23.3-7.85c4.84-0.87,9.77-1.24,14.68-1.7c0.66-0.06,1.74,0.43,2.05,0.99
				c6.52,11.83,10,24.55,10.93,37.99c0,0,0,0.01,0,0.01c0.03,0.53-0.56,0.87-1.02,0.6C298.72,35.64,282.23,26.13,265.38,16.41"/>
		</g>
	</g>
</g>
</svg>
